HIERARCHY
ROOT pelvis
{
  OFFSET 0 100 0
  CHANNELS 6 Xposition Yposition Zposition Zrotation Xrotation Yrotation
  JOINT pelvis_right_femur
  {
    OFFSET -10.78128 -3.44521 -0.5502486
    CHANNELS 3 Zrotation Xrotation Yrotation
    JOINT right_femur_tibia
    {
      OFFSET -0.8047443 -44.0398 -0.1307829
      CHANNELS 3 Zrotation Xrotation Yrotation
      JOINT right_tibia_foot
      {
        OFFSET 3.006224 -47.83518 -5
        CHANNELS 3 Zrotation Xrotation Yrotation
        End Site
        {
          OFFSET 0 -5 15
        }
      }
    }
  }
  JOINT pelvis_left_femur
  {
    OFFSET 10.78128 -3.44521 -0.5502486
    CHANNELS 3 Zrotation Xrotation Yrotation
    JOINT left_femur_tibia
    {
      OFFSET 0.8047443 -44.0398 -0.1307829
      CHANNELS 3 Zrotation Xrotation Yrotation
      JOINT left_tibia_foot
      {
        OFFSET -4.370144 -48.10324 -4.275266
        CHANNELS 3 Zrotation Xrotation Yrotation
        End Site
        {
          OFFSET 0 -5 15
        }
      }
    }
  }
  JOINT pelvis_spine1
  {
    OFFSET 0 6.468898 -3.129235
    CHANNELS 3 Zrotation Xrotation Yrotation
    JOINT spine1
    {
      OFFSET 0 23.15396 4.99043
      CHANNELS 3 Zrotation Xrotation Yrotation
      JOINT spine2
      {
        OFFSET 0 20.79997 -5.064912
        CHANNELS 3 Zrotation Xrotation Yrotation
        JOINT neck
        {
          OFFSET 0 14.38658 9.616178
          CHANNELS 3 Zrotation Xrotation Yrotation
          End Site
          {
            OFFSET 0 20 0
          }
        }
      }
      JOINT right_manubrium
      {
        OFFSET -5.722621 16.35077 3.967754
        CHANNELS 3 Zrotation Xrotation Yrotation
        JOINT right_clavicle
        {
          OFFSET -13.16364 1.694482 -4.693211
          CHANNELS 3 Zrotation Xrotation Yrotation
          JOINT right_humerus
          {
            OFFSET -28.5034 -0.3100689 -2.792744
            CHANNELS 3 Zrotation Xrotation Yrotation
            JOINT right_radius
            {
              OFFSET -25.15693 0.02248979 -1.271978
              CHANNELS 3 Zrotation Xrotation Yrotation
              End Site
              {
                OFFSET -15 0 0
              }
            }
          }
        }
      }
      JOINT left_manubrium
      {
        OFFSET 5.722621 16.35077 3.967754
        CHANNELS 3 Zrotation Xrotation Yrotation
        JOINT left_clavicle
        {
          OFFSET 13.16364 1.694482 -4.693211
          CHANNELS 3 Zrotation Xrotation Yrotation
          JOINT left_humerus
          {
            OFFSET 29.39168 -1.063119 -2.237045
            CHANNELS 3 Zrotation Xrotation Yrotation
            JOINT left_radius
            {
              OFFSET 24.59957 -0.9528479 0.9047498
              CHANNELS 3 Zrotation Xrotation Yrotation
              End Site
              {
                OFFSET 15 -0 -0
              }
            }
          }
        }
      }
    }
  }
}
MOTION
Frames: 15
Frame Time: 0.0416666666667
0 103.5113 0 0.3550588 0.9207927 0.494003 4.191573 -20.49541 11.09334 -0 41.86109 -0 -3.304656 -16.53272 -5.645979 -6.360172 9.467144 -22.96432 -0 1.728232 -0 2.904543 -19.87112 22.4962 -4.079681 -1.960469 4.095772 3.141765 8.267583 -8.722351 0.4608578 21.14291 8.127651 3.373177 -24.97154 9.273608 9.156205 -19.46653 12.03405 84.0325 40.90342 -19.67089 -0 0 17.90877 -7.471295 11.88788 6.718009 3.684357 -18.20692 -1.634166 -97.44438 36.5267 27.96562 0 0 -18.74012 -6.252311 13.39719 23.57622
0.383712 103.4707 1.152985 0.494041 0.5084353 1.052127 3.859825 -20.27931 10.99903 -0 43.06856 -0 -3.025839 -15.91879 -5.958074 -6.421161 9.538016 -22.57919 -0 2.071126 -0 2.664599 -19.84187 22.23555 -4.187022 -1.890106 4.074945 3.052324 8.443084 -8.755318 0.4469139 21.18455 8.110955 3.312187 -24.63832 9.197753 9.17546 -19.38305 12.04682 84.2798 40.74517 -19.86481 -0 0 17.7507 -8.107607 12.26393 6.993846 3.53699 -18.27491 -1.866308 -97.04895 36.68483 27.6326 0 0 -18.94245 -6.713996 12.98572 24.20081
0.7311792 103.2738 2.651939 0.3936568 0.6647302 1.603149 3.963447 -22.05768 10.1462 -0 39.97122 -0 -3.106228 -14.79404 -5.859051 -6.199795 10.87793 -21.81341 -0 2.058211 -0 2.283943 -20.30513 21.47489 -4.017382 -1.824669 3.81459 3.073517 8.3783 -8.875727 0.4730112 21.13364 8.140412 3.334748 -24.5401 9.19121 8.64261 -18.98937 11.87665 85.03109 40.02357 -20.60551 -0 0 16.79551 -8.708653 12.22415 7.068465 3.952621 -18.80584 -2.002911 -95.3877 35.94288 25.43605 0 0 -20.29871 -5.729101 13.00621 22.80122
1.047253 102.9148 4.50682 0.2797263 0.8508322 2.159774 4.050731 -23.89081 9.385898 -0 36.95005 -0 -3.060887 -13.79309 -5.884992 -5.961223 12.27933 -21.02298 -0 2.047301 -0 1.678377 -20.75778 20.5371 -3.846671 -1.746964 3.550935 3.106771 8.275494 -9.034497 0.4922982 21.04512 8.172006 3.330082 -24.41597 9.184982 8.174609 -18.5603 11.69758 85.76522 39.4011 -21.40258 -0 0 15.89353 -9.31542 12.33181 7.177677 4.304446 -19.29377 -2.131051 -93.82911 35.38408 23.38127 0 0 -21.72997 -5.075466 12.83771 21.86714
1.333961 102.3931 6.733201 0.09107663 1.188791 2.700821 4.254737 -25.80638 8.652391 -0 33.4269 -0 -3.116693 -12.95782 -5.808021 -5.699846 13.67176 -20.32812 -0 2.159612 -0 1.054408 -21.1631 19.59914 -3.615221 -1.688338 3.290826 3.172044 8.104559 -9.184208 0.5178953 20.9343 8.209076 3.346649 -24.40968 9.202059 7.696606 -18.13014 11.51295 86.42695 38.82332 -22.15021 -0 0 15.00715 -9.715507 12.33095 7.19289 4.70006 -19.75849 -2.174291 -92.43476 34.73234 21.4526 0 0 -23.10957 -4.275556 12.76596 20.74396
1.593931 101.7206 9.354472 -0.1626073 1.636254 3.218786 4.542554 -27.73998 8.002907 -0 29.70338 -0 -3.179218 -12.26544 -5.728892 -5.409455 15.0608 -19.68125 -0 2.523984 -0 0.2588352 -21.47772 18.54369 -3.334437 -1.633154 3.033726 3.260813 7.866978 -9.339594 0.5464399 20.79123 8.250206 3.365097 -24.46927 9.234435 7.25466 -17.66914 11.31882 87.03285 38.33754 -22.88995 -0 0 14.15099 -9.980473 12.34009 7.165297 5.075555 -20.16438 -2.154429 -91.20412 34.15072 19.69964 0 0 -24.44475 -3.572815 12.65704 19.77363
1.833075 100.9319 12.38681 -0.4888145 2.18487 3.700536 4.940329 -29.49994 7.471535 -0 25.9646 -0 -3.301682 -11.71121 -5.597281 -5.103071 16.3023 -19.12912 -0 3.373362 -0 -0.6647244 -21.60542 17.43823 -2.994642 -1.58859 2.801705 3.366377 7.573307 -9.471169 0.5808739 20.62817 8.293418 3.398109 -24.62496 9.283214 6.863386 -17.20072 11.12827 87.53641 37.96247 -23.5459 -0 0 13.35567 -10.06047 12.30961 7.074123 5.414199 -20.47329 -2.055835 -90.23887 33.62299 18.25615 0 0 -25.57779 -2.915689 12.56424 18.89531
2.06009 100.0868 15.84898 -0.8896342 2.818054 4.13514 5.460252 -30.91905 7.117607 -0 22.48572 -0 -3.469672 -11.29679 -5.433377 -4.779969 17.3024 -18.6857 -0 4.927282 -0 -1.775375 -21.45409 16.26751 -2.592839 -1.550477 2.608003 3.481692 7.222056 -9.565522 0.6226815 20.44704 8.336785 3.444291 -24.87387 9.347541 6.560482 -16.72123 10.94404 87.90678 37.7479 -24.08278 -0 0 12.65402 -9.94573 12.26576 6.930189 5.668609 -20.631 -1.873294 -89.6081 33.24436 17.24317 0 0 -26.3942 -2.410522 12.45824 18.26604
2.2879 99.27047 19.76423 -1.357197 3.495077 4.510545 6.101183 -31.7861 6.96157 -0 19.55266 -0 -3.698783 -10.96394 -5.22782 -4.451498 17.93221 -18.35008 -0 7.462668 -0 -3.073912 -20.91863 15.06322 -2.126598 -1.515413 2.469671 3.592833 6.831864 -9.597637 0.674641 20.26166 8.376439 3.508516 -25.21025 9.422396 6.364284 -16.23629 10.77459 88.11911 37.70506 -24.44476 -0 0 12.05895 -9.650433 12.20462 6.744877 5.802096 -20.59912 -1.611656 -89.36595 33.03471 16.75477 0 0 -26.75946 -2.078161 12.34193 17.92361
2.532879 98.58694 24.16634 -1.866084 4.140975 4.813964 6.823732 -31.92362 6.980834 -0 17.43524 -0 -3.989474 -10.60129 -4.994995 -4.133892 18.1042 -18.0741 -0 11.24395 -0 -4.561787 -19.91433 13.84801 -1.602203 -1.47178 2.395153 3.680925 6.435841 -9.548695 0.7395482 20.09239 8.405112 3.589964 -25.59427 9.495016 6.279328 -15.73872 10.62689 88.18037 37.80966 -24.60201 -0 0 11.54698 -9.249267 12.14494 6.549773 5.781046 -20.36518 -1.29816 -89.50274 32.98764 16.79887 0 0 -26.59704 -1.941704 12.19592 17.90231
2.811459 98.14347 29.10139 -2.35891 4.617812 5.02833 7.531452 -31.23355 7.064011 -0 16.28696 -0 -4.343958 -9.995917 -4.758632 -3.857987 17.79053 -17.72859 -0 16.50846 -0 -6.184768 -18.40609 12.66074 -1.039993 -1.399372 2.382702 3.718614 6.106873 -9.408575 0.8189707 19.97466 8.409307 3.682707 -25.93756 9.536792 6.267748 -15.2152 10.51374 88.16197 37.9457 -24.57086 -0 0 11.02289 -8.918592 12.11525 6.397665 5.599382 -19.98665 -1.002419 -89.88355 32.98431 17.20562 0 0 -25.94874 -1.938367 11.9973 18.1041
3.132263 98.03026 34.61689 -2.74021 4.717708 5.129094 8.082079 -29.73573 7.030211 -0 16.07565 -0 -4.754062 -8.876361 -4.565291 -3.662174 17.03533 -17.10012 -0 23.40036 -0 -7.825359 -16.43788 11.55504 -0.4812614 -1.268266 2.42116 3.672404 5.961628 -9.18392 0.9115461 19.95857 8.366281 3.769899 -26.09292 9.499347 6.248281 -14.65183 10.45713 88.20893 37.90335 -24.43386 -0 0 10.32477 -8.939015 12.16581 6.361333 5.285278 -19.60449 -0.8429749 -90.21907 32.80799 17.595 0 0 -25.01876 -1.931582 11.71648 18.3088
3.486149 98.30622 40.72822 -2.886772 4.188987 5.085257 8.334949 -27.49389 6.697705 -0 16.56381 -0 -5.19568 -7.043143 -4.468896 -3.577848 15.85252 -15.93849 -0 31.90004 -0 -9.283076 -14.12922 10.63002 0.01206418 -1.046048 2.511236 3.507219 6.150513 -8.891395 1.011426 20.10137 8.242724 3.824209 -25.87966 9.318778 6.113464 -14.06944 10.49525 88.48496 37.42296 -24.29243 -0 0 9.301996 -9.636438 12.35378 6.520828 4.895066 -19.41511 -0.9673169 -90.15277 32.18474 17.49898 0 0 -24.11972 -1.737117 11.33317 18.20961
3.841619 99.00051 47.36233 -2.689209 2.825195 4.871344 8.221631 -24.39421 6.012905 -0 17.40198 -0 -5.614051 -4.629752 -4.503671 -3.593559 13.99988 -14.08174 -0 41.71292 -0 -10.30064 -11.61878 10.07213 0.3696574 -0.7126885 2.70576 3.196604 6.805643 -8.533559 1.108804 20.44445 7.997523 3.814111 -25.15468 8.936653 5.786884 -13.5811 10.68185 89.01867 36.3307 -24.12511 -0 0 7.998684 -11.23137 12.71454 6.944065 4.473574 -19.56184 -1.482549 -89.53446 30.90787 16.72545 0 0 -23.46897 -1.243395 10.84469 17.59155
4.15465 100.1158 54.29813 -2.115107 0.6034654 4.482695 7.803012 -19.92723 5.172709 -0 18.27104 -0 -5.913486 -2.367692 -4.655204 -3.592397 10.77614 -11.62002 -0 52.06781 -0 -10.63912 -8.994631 10.17875 0.5336447 -0.2806847 3.142002 2.73641 7.954773 -8.071339 1.192447 20.97871 7.592487 3.714391 -23.90993 8.334326 5.294021 -13.44074 11.06763 89.53711 34.71145 -23.63906 -0 0 6.86107 -13.65132 13.22847 7.664197 4.009616 -19.99002 -2.355797 -88.70092 29.02419 15.75593 0 0 -22.92933 -0.5651401 10.27284 16.56798
